<svg width="17" height="23" viewBox="0 0 17 23" fill="none" xmlns="http://www.w3.org/2000/svg">
<path fill-rule="evenodd" clip-rule="evenodd" d="M4.65589 6.33298C4.65589 4.20173 6.38361 2.47401 8.51487 2.47401C10.6461 2.47401 12.3738 4.20173 12.3738 6.33298C12.3738 8.46424 10.6461 10.192 8.51487 10.192C6.38361 10.192 4.65589 8.46424 4.65589 6.33298ZM8.51487 0.858624C5.49146 0.858624 3.04051 3.30958 3.04051 6.33298C3.04051 9.35639 5.49146 11.8073 8.51487 11.8073C11.5383 11.8073 13.9892 9.35639 13.9892 6.33298C13.9892 3.30958 11.5383 0.858624 8.51487 0.858624ZM3.45281 16.317C4.1765 15.5933 5.15805 15.1867 6.18151 15.1867H10.8482C11.8716 15.1867 12.8532 15.5933 13.5769 16.317C14.3006 17.0407 14.7072 18.0223 14.7072 19.0457V21.3791C14.7072 21.8251 15.0688 22.1867 15.5148 22.1867C15.9609 22.1867 16.3225 21.8251 16.3225 21.3791V19.0457C16.3225 17.5938 15.7458 16.2014 14.7191 15.1748C13.6925 14.1481 12.3001 13.5714 10.8482 13.5714H6.18151C4.72962 13.5714 3.3372 14.1481 2.31056 15.1748C1.28391 16.2014 0.707153 17.5938 0.707153 19.0457V21.3791C0.707153 21.8251 1.06877 22.1867 1.51485 22.1867C1.96092 22.1867 2.32254 21.8251 2.32254 21.3791V19.0457C2.32254 18.0223 2.72911 17.0407 3.45281 16.317Z" fill="#282828"/>
</svg>
